<svg width="60" height="60" viewBox="0 0 60 60" fill="none" xmlns="http://www.w3.org/2000/svg">
<rect width="60" height="60" fill="#040404"/>
<rect width="60" height="60" fill="#040404"/>
<path fill-rule="evenodd" clip-rule="evenodd" d="M29.9541 15.3599C21.6972 15.3599 15 22.0571 15 30.314C15 36.9195 19.3119 42.5158 25.1835 44.5342C25.9174 44.6259 26.1927 44.1672 26.1927 43.8002C26.1927 43.4333 26.1927 42.5158 26.1927 41.2314C22.0642 42.1489 21.1468 39.2131 21.1468 39.2131C20.5046 37.47 19.4954 37.0112 19.4954 37.0112C18.1193 36.0938 19.5872 36.0938 19.5872 36.0938C21.055 36.1856 21.8807 37.6534 21.8807 37.6534C23.2569 39.947 25.367 39.3048 26.1927 38.9378C26.2844 37.9287 26.7431 37.2865 27.1101 36.9195C23.8073 36.5525 20.3211 35.2681 20.3211 29.4883C20.3211 27.8369 20.8716 26.5525 21.8807 25.4516C21.789 25.1764 21.2385 23.6167 22.0642 21.5984C22.0642 21.5984 23.3486 21.2314 26.1927 23.158C27.3853 22.7911 28.6697 22.6993 29.9541 22.6993C31.2385 22.6993 32.5229 22.8828 33.7156 23.158C36.5596 21.2314 37.844 21.5984 37.844 21.5984C38.6697 23.6167 38.1193 25.1764 38.0275 25.5434C38.945 26.5525 39.5872 27.9287 39.5872 29.58C39.5872 35.3599 36.1009 36.5525 32.7982 36.9195C33.3486 37.3782 33.8073 38.2956 33.8073 39.6718C33.8073 41.6901 33.8073 43.2498 33.8073 43.8002C33.8073 44.1672 34.0826 44.6259 34.8165 44.5342C40.7798 42.5158 45 36.9195 45 30.314C44.9083 22.0571 38.211 15.3599 29.9541 15.3599Z" fill="#FAFAFA"/>
</svg>
