<svg width="28" height="28" viewBox="0 0 28 28" fill="none" xmlns="http://www.w3.org/2000/svg">
<path fill-rule="evenodd" clip-rule="evenodd" d="M17.1255 0.621495C16.3042 1.8374 14.1051 4.71028 13.9957 4.71028C13.8453 4.71028 11.9174 2.25544 11.1504 1.08755C10.8106 0.570336 10.4418 0.143402 10.3307 0.138953C10.1109 0.130187 6.54206 3.20351 6.54206 3.40161C6.54206 3.46834 6.91011 3.77058 7.35981 4.07308C8.44723 4.80475 11.2751 6.97383 11.5092 7.25579C11.677 7.45808 11.4931 7.68037 9.60099 9.56226C8.44933 10.7076 7.44407 11.6449 7.36701 11.6449C7.18854 11.6449 5.30822 9.27821 4.28465 7.76529C3.85379 7.12849 3.45826 6.59073 3.40566 6.57032C3.2446 6.50791 0 10.1671 0 10.4112C0 10.435 0.515252 10.8189 1.14486 11.2642C2.66039 12.3362 4.69994 13.9134 4.7057 14.0178C4.71198 14.1315 1.97151 16.2564 0.877944 16.9857C0.389383 17.3115 0.0066729 17.6526 0.0274766 17.7435C0.0726168 17.9404 3.26148 21.5906 3.38316 21.5847C3.42948 21.5825 3.86884 20.9772 4.35963 20.2398C5.49271 18.5372 7.06869 16.567 7.33901 16.5149C7.56275 16.4718 11.6862 20.487 11.6184 20.6819C11.5521 20.873 9.16437 22.7333 7.7297 23.7119C6.36608 24.6421 6.36608 24.6421 7.20634 25.4196C8.51736 26.6324 10.1586 28 10.3036 28C10.3758 28 10.9693 27.2492 11.6224 26.3318C12.9588 24.4539 13.8889 23.2938 14.0284 23.3305C14.1651 23.3664 16.1642 25.9548 16.8516 26.986C17.1754 27.4718 17.4987 27.8692 17.5701 27.8692C17.8004 27.8692 21.3278 24.7384 21.3259 24.5355C21.3253 24.4621 20.9656 24.1704 20.5265 23.8875C19.6024 23.2921 17.6968 21.8705 16.8902 21.1748C16.3558 20.7139 16.3422 20.6836 16.537 20.3898C16.6485 20.2216 17.5956 19.2364 18.6417 18.2001C20.5406 16.3193 20.5443 16.3167 20.8201 16.5646C21.2053 16.911 22.9757 19.2211 23.8136 20.4707C24.5115 21.5116 24.5115 21.5116 25.2212 20.7324C26.2985 19.5498 27.8696 17.6654 27.8659 17.5604C27.8641 17.5092 27.3756 17.1336 26.7806 16.7258C25.1577 15.6137 23.2692 14.1261 23.3148 13.9959C23.374 13.8272 25.5336 12.1277 26.8551 11.2099C27.4849 10.7727 28 10.3741 28 10.3245C28 10.1576 24.7656 6.4468 24.5981 6.42155C24.5621 6.41619 24.3583 6.69121 24.1452 7.03297C23.2584 8.4543 20.9167 11.5279 20.6441 11.6281C20.4916 11.6842 16.3528 7.59389 16.3598 7.39409C16.3663 7.21249 18.7621 5.31725 20.2965 4.27994C20.9889 3.81192 21.5188 3.37858 21.474 3.31721C21.2627 3.02779 17.7415 0 17.6163 0C17.5772 0 17.3563 0.279738 17.1255 0.621495ZM16.0921 7.21039C16.1888 7.37787 15.9898 7.61129 15.1162 8.35525C14.5126 8.8692 13.9825 9.28972 13.9382 9.28972C13.8635 9.28972 13.6092 9.07082 12.2529 7.83922C11.7362 7.37015 11.7362 7.37015 12.8354 6.10308C13.9346 4.83615 13.9346 4.83615 14.9527 5.91808C15.5127 6.51314 16.0254 7.09473 16.0921 7.21039ZM16.3523 11.7074C18.6364 13.9942 18.6364 13.9942 18.1826 14.4832C17.0833 15.668 14.0964 18.5794 13.9804 18.5794C13.8083 18.5794 9.42056 14.2186 9.42056 14.0476C9.42056 13.9095 13.8557 9.42056 13.9923 9.42056C14.034 9.42056 15.0961 10.4496 16.3523 11.7074ZM8.43049 12.9858C9.32164 13.9999 9.32164 13.9999 8.68419 14.7386C8.33353 15.1449 7.89221 15.6589 7.70353 15.8808C7.36021 16.2844 7.36021 16.2844 6.6568 15.674C4.58297 13.8748 4.72219 14.106 5.36671 13.5315C5.68308 13.2494 6.26009 12.7337 6.64895 12.3854C7.03781 12.0371 7.39723 11.8016 7.44761 11.8621C7.49811 11.9225 7.94035 12.4282 8.43049 12.9858ZM22.0771 13.0473C23.1543 14.0654 23.1543 14.0654 21.8963 15.1696C20.6382 16.2738 20.6382 16.2738 20.2303 15.8196C19.1332 14.5979 18.7104 14.0967 18.7115 14.0194C18.7121 13.9728 18.9794 13.6402 19.3053 13.2804C19.6313 12.9206 20.0489 12.4361 20.2335 12.2036C20.6423 11.6888 20.6377 11.6867 22.0771 13.0473ZM14.8673 19.4487C15.2898 19.8189 15.7788 20.2375 15.9538 20.3786C16.2722 20.6356 16.2722 20.6356 15.1886 21.8645C14.5926 22.5404 14.0619 23.1098 14.009 23.1297C13.9563 23.1497 13.4222 22.5999 12.8224 21.908C11.7317 20.65 11.7317 20.65 12.3747 20.1053C12.7284 19.8058 13.224 19.3712 13.4761 19.1393C13.7282 18.9075 13.9716 18.7308 14.0169 18.7468C14.0621 18.7627 14.4449 19.0786 14.8673 19.4487Z" fill="#FAFAFA"/>
</svg>
